# xmcd
#
# Track frame offsets:
#	150
#	18621
#	26180
#	37247
#	39980
#	48871
#	59040
#	64091
#	73730
#	83185
#	89210
#	93283
#	104094
#	109091
#	114836
#	119709
#	127006
#	131625
#	140250
#
# Disc length: 2051 seconds
#
# Revision: 0
# Processed by: cddbd v1.5.2PL0 Copyright (c) Steve Scherf et al.
# Submitted via: EasyCDDAExtractor 16.0.6.1
#
DISCID=23080113
DTITLE=Συλλογικός δίσκος - Παύλος Μελάς-Γ. Σπανός
DYEAR=1972
DGENRE=Ελλ. πατριωτική
TTITLE0=Γαλάνη Δήμητρα-χορωδία - Σε κλαίει λαός [Κωστής Παλαμάς]
TTITLE1=Άνευ ερμηνευτού - Λατέρνα [ορχηστρικό]
TTITLE2=Άνευ ερμηνευτού - Τίτλοι [ορχηστρικό]
TTITLE3=Άνευ ερμηνευτού - Μακεδονικό τοπίο [ορχηστρικό]
TTITLE4=Άνευ ερμηνευτού - Ποιητής Κάρου [1, ορχηστρικό]
TTITLE5=Άνευ ερμηνευτού - Εμβατήριο [ορχηστρικό]
TTITLE6=Άνευ ερμηνευτού - Σιάτιστα [ορχηστρικό]
TTITLE7=Άνευ ερμηνευτού - Finale [ορχηστρικό]
TTITLE8=Χορωδία - Ορκομοσία
TTITLE9=Άνευ ερμηνευτού - Μακεδονίτικο μοιρολόϊ [ορχηστρικό]
TTITLE10=Άνευ ερμηνευτού - Τοπίο [ορχηστρικό]
TTITLE11=Άνευ ερμηνευτού - Πυροβολισμός Μελά [ορχηστρικό]
TTITLE12=Άνευ ερμηνευτού - Ναταλία [ορχηστρικό]
TTITLE13=Άνευ ερμηνευτού - Μακεδονομάχοι [ορχηστρικό]
TTITLE14=Άνευ ερμηνευτού - Κωνσταντινούπολις [ορχηστρικό]
TTITLE15=Άνευ ερμηνευτού - Εμβατήριο [ορχηστρικό]
TTITLE16=Άνευ ερμηνευτού - Ποιητής Κάρου [2, ορχηστρικό]
TTITLE17=Άνευ ερμηνευτού - Ταφή [ορχηστρικό]
TTITLE18=Χορωδία - Θρήνος
EXTD=
EXTT0=
EXTT1=
EXTT2=
EXTT3=
EXTT4=
EXTT5=
EXTT6=
EXTT7=
EXTT8=
EXTT9=
EXTT10=
EXTT11=
EXTT12=
EXTT13=
EXTT14=
EXTT15=
EXTT16=
EXTT17=
EXTT18=
PLAYORDER=
